<?xml version="1.0" encoding="utf-8" ?>
<svg xmlns="http://www.w3.org/2000/svg" xmlns:xlink="http://www.w3.org/1999/xlink" width="24" height="22">
	<path fill="#F1F3F8" d="M5 0L19 0C21.761423 -8.8817842e-16 24 2.2385762 24 5L24 17C24 19.761423 21.761423 22 19 22L5 22C2.2385762 22 8.8817842e-16 19.761423 8.8817842e-16 17L0 5C0 2.2385762 2.2385762 0 5 0Z" fill-rule="evenodd"/>
	<path fill="#687196" transform="translate(6 11)" d="M1.5 0.6875Q1.5 0.75521278 1.4855888 0.82162452Q1.4711778 0.88803619 1.4429095 0.95059466Q1.4146411 1.0131531 1.373602 1.0694543Q1.3325629 1.1257554 1.2803301 1.1736357Q1.2280972 1.2215159 1.1666777 1.2591352Q1.1052582 1.2967544 1.0370126 1.322667Q0.96876693 1.3485796 0.89631772 1.3617897Q0.82386851 1.375 0.75 1.375Q0.67613137 1.375 0.60368216 1.3617897Q0.53123301 1.3485796 0.46298739 1.322667Q0.39474177 1.2967545 0.33332229 1.2591352Q0.27190286 1.221516 0.21966991 1.1736358Q0.16743696 1.1257555 0.12639777 1.0694544Q0.08535862 1.0131532 0.057090346 0.95059472Q0.028822076 0.88803625 0.014411038 0.82162452Q0 0.75521278 0 0.6875Q0 0.6197871 0.014411038 0.55337536Q0.028822076 0.4869636 0.057090346 0.4244051Q0.08535862 0.3618466 0.12639779 0.30554545Q0.16743696 0.24924427 0.21966991 0.20136407Q0.27190286 0.15348385 0.33332229 0.11586462Q0.39474177 0.078245386 0.46298739 0.052332811Q0.53123301 0.026420234 0.60368222 0.013210117Q0.67613137 0 0.75 0Q0.82386851 0 0.89631772 0.013210117Q0.96876687 0.026420234 1.0370125 0.052332811Q1.1052581 0.078245386 1.1666776 0.11586462Q1.228097 0.15348385 1.2803299 0.20136407Q1.3325629 0.24924427 1.373602 0.30554545Q1.4146411 0.3618466 1.4429095 0.4244051Q1.4711778 0.4869636 1.4855888 0.55337536Q1.5 0.6197871 1.5 0.6875Z"/>
	<path fill="none" stroke="#687196" stroke-width="1.4" stroke-linecap="round" stroke-linejoin="round" transform="translate(6 11)" d="M1.5 0.6875Q1.5 0.75521278 1.4855888 0.82162452Q1.4711778 0.88803619 1.4429095 0.95059466Q1.4146411 1.0131531 1.373602 1.0694543Q1.3325629 1.1257554 1.2803301 1.1736357Q1.2280972 1.2215159 1.1666777 1.2591352Q1.1052582 1.2967544 1.0370126 1.322667Q0.96876693 1.3485796 0.89631772 1.3617897Q0.82386851 1.375 0.75 1.375Q0.67613137 1.375 0.60368216 1.3617897Q0.53123301 1.3485796 0.46298739 1.322667Q0.39474177 1.2967545 0.33332229 1.2591352Q0.27190286 1.221516 0.21966991 1.1736358Q0.16743696 1.1257555 0.12639777 1.0694544Q0.08535862 1.0131532 0.057090346 0.95059472Q0.028822076 0.88803625 0.014411038 0.82162452Q0 0.75521278 0 0.6875Q0 0.6197871 0.014411038 0.55337536Q0.028822076 0.4869636 0.057090346 0.4244051Q0.08535862 0.3618466 0.12639779 0.30554545Q0.16743696 0.24924427 0.21966991 0.20136407Q0.27190286 0.15348385 0.33332229 0.11586462Q0.39474177 0.078245386 0.46298739 0.052332811Q0.53123301 0.026420234 0.60368222 0.013210117Q0.67613137 0 0.75 0Q0.82386851 0 0.89631772 0.013210117Q0.96876687 0.026420234 1.0370125 0.052332811Q1.1052581 0.078245386 1.1666776 0.11586462Q1.228097 0.15348385 1.2803299 0.20136407Q1.3325629 0.24924427 1.373602 0.30554545Q1.4146411 0.3618466 1.4429095 0.4244051Q1.4711778 0.4869636 1.4855888 0.55337536Q1.5 0.6197871 1.5 0.6875Z"/>
	<path fill="#687196" transform="translate(11.25 11)" d="M1.5 0.6875Q1.5 0.75521278 1.4855888 0.82162452Q1.4711778 0.88803619 1.4429095 0.95059466Q1.4146411 1.0131531 1.373602 1.0694543Q1.3325629 1.1257554 1.2803301 1.1736357Q1.2280972 1.2215159 1.1666777 1.2591352Q1.1052582 1.2967544 1.0370126 1.322667Q0.96876693 1.3485796 0.89631772 1.3617897Q0.82386851 1.375 0.75 1.375Q0.67613137 1.375 0.60368216 1.3617897Q0.53123301 1.3485796 0.46298739 1.322667Q0.39474177 1.2967545 0.33332229 1.2591352Q0.27190286 1.221516 0.21966991 1.1736358Q0.16743696 1.1257555 0.12639777 1.0694544Q0.08535862 1.0131532 0.057090346 0.95059472Q0.028822076 0.88803625 0.014411038 0.82162452Q0 0.75521278 0 0.6875Q0 0.6197871 0.014411038 0.55337536Q0.028822076 0.4869636 0.057090346 0.4244051Q0.08535862 0.3618466 0.12639779 0.30554545Q0.16743696 0.24924427 0.21966991 0.20136407Q0.27190286 0.15348385 0.33332229 0.11586462Q0.39474177 0.078245386 0.46298739 0.052332811Q0.53123301 0.026420234 0.60368222 0.013210117Q0.67613137 0 0.75 0Q0.82386851 0 0.89631772 0.013210117Q0.96876687 0.026420234 1.0370125 0.052332811Q1.1052581 0.078245386 1.1666776 0.11586462Q1.228097 0.15348385 1.2803299 0.20136407Q1.3325629 0.24924427 1.373602 0.30554545Q1.4146411 0.3618466 1.4429095 0.4244051Q1.4711778 0.4869636 1.4855888 0.55337536Q1.5 0.6197871 1.5 0.6875Z"/>
	<path fill="none" stroke="#687196" stroke-width="1.4" stroke-linecap="round" stroke-linejoin="round" transform="translate(11.25 11)" d="M1.5 0.6875Q1.5 0.75521278 1.4855888 0.82162452Q1.4711778 0.88803619 1.4429095 0.95059466Q1.4146411 1.0131531 1.373602 1.0694543Q1.3325629 1.1257554 1.2803301 1.1736357Q1.2280972 1.2215159 1.1666777 1.2591352Q1.1052582 1.2967544 1.0370126 1.322667Q0.96876693 1.3485796 0.89631772 1.3617897Q0.82386851 1.375 0.75 1.375Q0.67613137 1.375 0.60368216 1.3617897Q0.53123301 1.3485796 0.46298739 1.322667Q0.39474177 1.2967545 0.33332229 1.2591352Q0.27190286 1.221516 0.21966991 1.1736358Q0.16743696 1.1257555 0.12639777 1.0694544Q0.08535862 1.0131532 0.057090346 0.95059472Q0.028822076 0.88803625 0.014411038 0.82162452Q0 0.75521278 0 0.6875Q0 0.6197871 0.014411038 0.55337536Q0.028822076 0.4869636 0.057090346 0.4244051Q0.08535862 0.3618466 0.12639779 0.30554545Q0.16743696 0.24924427 0.21966991 0.20136407Q0.27190286 0.15348385 0.33332229 0.11586462Q0.39474177 0.078245386 0.46298739 0.052332811Q0.53123301 0.026420234 0.60368222 0.013210117Q0.67613137 0 0.75 0Q0.82386851 0 0.89631772 0.013210117Q0.96876687 0.026420234 1.0370125 0.052332811Q1.1052581 0.078245386 1.1666776 0.11586462Q1.228097 0.15348385 1.2803299 0.20136407Q1.3325629 0.24924427 1.373602 0.30554545Q1.4146411 0.3618466 1.4429095 0.4244051Q1.4711778 0.4869636 1.4855888 0.55337536Q1.5 0.6197871 1.5 0.6875Z"/>
	<path fill="#687196" transform="translate(16.5 11)" d="M1.5 0.6875Q1.5 0.75521278 1.4855888 0.82162452Q1.4711778 0.88803619 1.4429095 0.95059466Q1.4146411 1.0131531 1.373602 1.0694543Q1.3325629 1.1257554 1.2803301 1.1736357Q1.2280972 1.2215159 1.1666777 1.2591352Q1.1052582 1.2967544 1.0370126 1.322667Q0.96876693 1.3485796 0.89631772 1.3617897Q0.82386851 1.375 0.75 1.375Q0.67613137 1.375 0.60368216 1.3617897Q0.53123301 1.3485796 0.46298739 1.322667Q0.39474177 1.2967545 0.33332229 1.2591352Q0.27190286 1.221516 0.21966991 1.1736358Q0.16743696 1.1257555 0.12639777 1.0694544Q0.08535862 1.0131532 0.057090346 0.95059472Q0.028822076 0.88803625 0.014411038 0.82162452Q0 0.75521278 0 0.6875Q0 0.6197871 0.014411038 0.55337536Q0.028822076 0.4869636 0.057090346 0.4244051Q0.08535862 0.3618466 0.12639779 0.30554545Q0.16743696 0.24924427 0.21966991 0.20136407Q0.27190286 0.15348385 0.33332229 0.11586462Q0.39474177 0.078245386 0.46298739 0.052332811Q0.53123301 0.026420234 0.60368222 0.013210117Q0.67613137 0 0.75 0Q0.82386851 0 0.89631772 0.013210117Q0.96876687 0.026420234 1.0370125 0.052332811Q1.1052581 0.078245386 1.1666776 0.11586462Q1.228097 0.15348385 1.2803299 0.20136407Q1.3325629 0.24924427 1.373602 0.30554545Q1.4146411 0.3618466 1.4429095 0.4244051Q1.4711778 0.4869636 1.4855888 0.55337536Q1.5 0.6197871 1.5 0.6875Z"/>
	<path fill="none" stroke="#687196" stroke-width="1.4" stroke-linecap="round" stroke-linejoin="round" transform="translate(16.5 11)" d="M1.5 0.6875Q1.5 0.75521278 1.4855888 0.82162452Q1.4711778 0.88803619 1.4429095 0.95059466Q1.4146411 1.0131531 1.373602 1.0694543Q1.3325629 1.1257554 1.2803301 1.1736357Q1.2280972 1.2215159 1.1666777 1.2591352Q1.1052582 1.2967544 1.0370126 1.322667Q0.96876693 1.3485796 0.89631772 1.3617897Q0.82386851 1.375 0.75 1.375Q0.67613137 1.375 0.60368216 1.3617897Q0.53123301 1.3485796 0.46298739 1.322667Q0.39474177 1.2967545 0.33332229 1.2591352Q0.27190286 1.221516 0.21966991 1.1736358Q0.16743696 1.1257555 0.12639777 1.0694544Q0.08535862 1.0131532 0.057090346 0.95059472Q0.028822076 0.88803625 0.014411038 0.82162452Q0 0.75521278 0 0.6875Q0 0.6197871 0.014411038 0.55337536Q0.028822076 0.4869636 0.057090346 0.4244051Q0.08535862 0.3618466 0.12639779 0.30554545Q0.16743696 0.24924427 0.21966991 0.20136407Q0.27190286 0.15348385 0.33332229 0.11586462Q0.39474177 0.078245386 0.46298739 0.052332811Q0.53123301 0.026420234 0.60368222 0.013210117Q0.67613137 0 0.75 0Q0.82386851 0 0.89631772 0.013210117Q0.96876687 0.026420234 1.0370125 0.052332811Q1.1052581 0.078245386 1.1666776 0.11586462Q1.228097 0.15348385 1.2803299 0.20136407Q1.3325629 0.24924427 1.373602 0.30554545Q1.4146411 0.3618466 1.4429095 0.4244051Q1.4711778 0.4869636 1.4855888 0.55337536Q1.5 0.6197871 1.5 0.6875Z"/>
</svg>
