<?xml version="1.0" encoding="utf-8" ?>
<svg xmlns="http://www.w3.org/2000/svg" xmlns:xlink="http://www.w3.org/1999/xlink" width="32" height="32">
	<path fill="white" transform="translate(9.36634 8.38679)" d="M2.9036613 11.893209C2.6236613 11.533209 2.2736614 10.803208 1.6636614 9.8932085C1.3136613 9.3932085 0.45366132 8.4432087 0.19366132 7.9532089C0.006232711 7.6554394 -0.04815349 7.2928648 0.043661319 6.9532089C0.20062129 6.3074179 0.81322247 5.879025 1.4736613 5.9532089C1.9844625 6.0558195 2.4538841 6.3061776 2.8236613 6.6732087C3.0818419 6.9163818 3.3193288 7.1806278 3.5336614 7.4632087C3.6936612 7.663209 3.7336614 7.7432089 3.9136612 7.9732089C4.0936613 8.2032089 4.2136612 8.4332085 4.1236615 8.0932093C4.0536613 7.5932088 3.9336612 6.7532086 3.7636614 6.0032086C3.6336613 5.4332089 3.6036613 5.3432088 3.4836614 4.913209C3.3636613 4.4832087 3.2936614 4.123209 3.1636612 3.6332088C3.0448282 3.1517806 2.9513659 2.6644425 2.8836613 2.1732087C2.7576144 1.5449128 2.8493156 0.89242256 3.1436613 0.32320881C3.4930544 -0.0054216734 4.0055919 -0.092158765 4.4436612 0.1032088C4.8842578 0.42854506 5.2127628 0.88286018 5.3836613 1.4032089C5.6457267 2.0435975 5.8206224 2.7162735 5.9036613 3.4032087C6.0636611 4.4032087 6.3736615 5.8632088 6.3836613 6.163209C6.3836613 5.7932086 6.3136611 5.0132089 6.3836613 4.663209C6.4530144 4.2983327 6.7066197 3.9955206 7.0536613 3.8632088C7.3514705 3.7718339 7.6665068 3.7512882 7.9736614 3.8032088C8.2836981 3.8680248 8.5583248 4.0463538 8.7436609 4.3032088C8.9753428 4.8866019 9.10392 5.5058064 9.123661 6.1332088C9.1504402 5.5837951 9.2444744 5.0397367 9.4036617 4.5132089C9.5707655 4.2777581 9.8147936 4.1079993 10.093661 4.0332088C10.424254 3.972764 10.763068 3.972764 11.093661 4.0332088C11.364756 4.1238399 11.601902 4.2947245 11.773662 4.5232086C11.985432 5.0535545 12.113624 5.6135507 12.153662 6.1832089C12.153662 6.3232088 12.223661 5.7932086 12.443662 5.4432087C12.557986 5.1038065 12.844696 4.8511777 13.195789 4.7804847C13.546883 4.7097917 13.909021 4.8317752 14.145789 5.1004848C14.382558 5.369194 14.457986 5.7438064 14.343661 6.083209C14.343661 6.7332087 14.343661 6.7032089 14.343661 7.143209C14.343661 7.583209 14.343661 7.9732089 14.343661 8.3432093C14.307222 8.9283876 14.226998 9.5100155 14.103662 10.083209C13.929636 10.590327 13.687414 11.071407 13.383661 11.513208C12.898109 12.053173 12.496916 12.663391 12.193662 13.323209C12.11842 13.651012 12.084821 13.986997 12.093661 14.323209C12.092658 14.633842 12.133012 14.943226 12.213661 15.243209C11.8048 15.286431 11.392522 15.286431 10.983662 15.243209C10.593661 15.183208 10.113662 14.403209 9.9836617 14.163209C9.9193392 14.034342 9.7876892 13.952914 9.6436615 13.952914C9.4996328 13.952914 9.3679838 14.034342 9.3036613 14.163209C9.0836611 14.543209 8.5936613 15.233209 8.2536612 15.273209C7.5836616 15.353209 6.2036614 15.273209 5.1136613 15.273209C5.1136613 15.273209 5.2936611 14.273209 4.8836613 13.913209C4.4736614 13.553208 4.0536613 13.133209 3.7436614 12.853209L2.9036613 11.893209Z"/>
	<path fill="none" stroke="black" stroke-width="0.75" stroke-linecap="round" stroke-linejoin="round" transform="translate(9.36634 8.38679)" d="M2.9036613 11.893209C2.6236613 11.533209 2.2736614 10.803208 1.6636614 9.8932085C1.3136613 9.3932085 0.45366132 8.4432087 0.19366132 7.9532089C0.006232711 7.6554394 -0.04815349 7.2928648 0.043661319 6.9532089C0.20062129 6.3074179 0.81322247 5.879025 1.4736613 5.9532089C1.9844625 6.0558195 2.4538841 6.3061776 2.8236613 6.6732087C3.0818419 6.9163818 3.3193288 7.1806278 3.5336614 7.4632087C3.6936612 7.663209 3.7336614 7.7432089 3.9136612 7.9732089C4.0936613 8.2032089 4.2136612 8.4332085 4.1236615 8.0932093C4.0536613 7.5932088 3.9336612 6.7532086 3.7636614 6.0032086C3.6336613 5.4332089 3.6036613 5.3432088 3.4836614 4.913209C3.3636613 4.4832087 3.2936614 4.123209 3.1636612 3.6332088C3.0448282 3.1517806 2.9513659 2.6644425 2.8836613 2.1732087C2.7576144 1.5449128 2.8493156 0.89242256 3.1436613 0.32320881C3.4930544 -0.0054216734 4.0055919 -0.092158765 4.4436612 0.1032088C4.8842578 0.42854506 5.2127628 0.88286018 5.3836613 1.4032089C5.6457267 2.0435975 5.8206224 2.7162735 5.9036613 3.4032087C6.0636611 4.4032087 6.3736615 5.8632088 6.3836613 6.163209C6.3836613 5.7932086 6.3136611 5.0132089 6.3836613 4.663209C6.4530144 4.2983327 6.7066197 3.9955206 7.0536613 3.8632088C7.3514705 3.7718339 7.6665068 3.7512882 7.9736614 3.8032088C8.2836981 3.8680248 8.5583248 4.0463538 8.7436609 4.3032088C8.9753428 4.8866019 9.10392 5.5058064 9.123661 6.1332088C9.1504402 5.5837951 9.2444744 5.0397367 9.4036617 4.5132089C9.5707655 4.2777581 9.8147936 4.1079993 10.093661 4.0332088C10.424254 3.972764 10.763068 3.972764 11.093661 4.0332088C11.364756 4.1238399 11.601902 4.2947245 11.773662 4.5232086C11.985432 5.0535545 12.113624 5.6135507 12.153662 6.1832089C12.153662 6.3232088 12.223661 5.7932086 12.443662 5.4432087C12.557986 5.1038065 12.844696 4.8511777 13.195789 4.7804847C13.546883 4.7097917 13.909021 4.8317752 14.145789 5.1004848C14.382558 5.369194 14.457986 5.7438064 14.343661 6.083209C14.343661 6.7332087 14.343661 6.7032089 14.343661 7.143209C14.343661 7.583209 14.343661 7.9732089 14.343661 8.3432093C14.307222 8.9283876 14.226998 9.5100155 14.103662 10.083209C13.929636 10.590327 13.687414 11.071407 13.383661 11.513208C12.898109 12.053173 12.496916 12.663391 12.193662 13.323209C12.11842 13.651012 12.084821 13.986997 12.093661 14.323209C12.092658 14.633842 12.133012 14.943226 12.213661 15.243209C11.8048 15.286431 11.392522 15.286431 10.983662 15.243209C10.593661 15.183208 10.113662 14.403209 9.9836617 14.163209C9.9193392 14.034342 9.7876892 13.952914 9.6436615 13.952914C9.4996328 13.952914 9.3679838 14.034342 9.3036613 14.163209C9.0836611 14.543209 8.5936613 15.233209 8.2536612 15.273209C7.5836616 15.353209 6.2036614 15.273209 5.1136613 15.273209C5.1136613 15.273209 5.2936611 14.273209 4.8836613 13.913209C4.4736614 13.553208 4.0536613 13.133209 3.7436614 12.853209L2.9036613 11.893209Z" fill-rule="evenodd"/>
	<path transform="translate(20 17)" d="M0.75 3.8258905L0.75 0.37410924C0.75 0.16749442 0.58210677 0 0.375 0C0.16789322 0 0 0.16749442 0 0.37410924L0 3.8258905C0 4.0325055 0.16789322 4.1999998 0.375 4.1999998C0.58210677 4.1999998 0.75 4.0325055 0.75 3.8258905Z"/>
	<path transform="translate(18 17)" d="M0.7699939 3.824626L0.74999392 0.37107173C0.74880022 0.16494995 0.57994211 -0.0011816897 0.3728388 0C0.16573544 0.001194354 -0.0011873168 0.16925216 0 0.37537396L0.020006362 3.828928C0.021200042 4.0350499 0.19005814 4.2011814 0.39716148 4.1999998C0.6042648 4.1988053 0.7711876 4.0307474 0.7699939 3.824626Z"/>
	<path transform="translate(16 17)" d="M0 0.37899137L0.020006511 3.8254025C0.021214111 4.0334969 0.19008343 4.2012067 0.3971867 4.1999998C0.60428995 4.1987801 0.77120137 4.0291028 0.76999378 3.8210084L0.74999374 0.37459734C0.74878615 0.16650318 0.57991683 -0.0012068343 0.37281358 0C0.16571033 0.0012199198 -0.0012010876 0.1708972 0 0.37899137Z"/>
</svg>
